<svg xmlns="http://www.w3.org/2000/svg" width="140" height="196" viewBox="0 0 140 196" role="img" aria-label="レベル2の山札"><title>レベル2の山札</title><defs><clipPath id="deck2"><rect x="1.5" y="1.5" width="137" height="193" rx="11"/></clipPath></defs><rect x="1.5" y="1.5" width="137" height="193" rx="11" fill="#C9A227" stroke="#6B5410" stroke-width="3"/><g clip-path="url(#deck2)" stroke="#FFFFFF" stroke-width="1.5" opacity="0.14"><line x1="196" y1="3" x2="0" y2="193"/><line x1="0" y1="3" x2="196" y2="193"/><line x1="224" y1="3" x2="28" y2="193"/><line x1="28" y1="3" x2="224" y2="193"/><line x1="252" y1="3" x2="56" y2="193"/><line x1="56" y1="3" x2="252" y2="193"/><line x1="280" y1="3" x2="84" y2="193"/><line x1="84" y1="3" x2="280" y2="193"/><line x1="308" y1="3" x2="112" y2="193"/><line x1="112" y1="3" x2="308" y2="193"/></g><rect x="10" y="10" width="120" height="176" rx="6" fill="none" stroke="#FFFFFF" stroke-width="2" opacity="0.7"/><polygon points="52.0,78.0 68.0,98.0 52.0,118.0 36.0,98.0" fill="#FFFFFF" stroke="#6B5410" stroke-width="3" stroke-linejoin="round"/><polygon points="88.0,78.0 104.0,98.0 88.0,118.0 72.0,98.0" fill="#FFFFFF" stroke="#6B5410" stroke-width="3" stroke-linejoin="round"/></svg>
