<svg xmlns="http://www.w3.org/2000/svg" width="140" height="140" viewBox="0 0 140 140" role="img" aria-label="貴族 3点 必要ボーナス白3・赤3・黒3"><title>貴族 3点 必要ボーナス白3・赤3・黒3</title><rect x="1.5" y="1.5" width="137" height="137" rx="8" fill="#F1E3C2" stroke="#8C6A3A" stroke-width="3"/><path d="M1.5,94 H138.5 V130.5 A8,8 0 0 1 130.5,138.5 H9.5 A8,8 0 0 1 1.5,130.5 Z" fill="#E2CC97"/><line x1="3" y1="94" x2="137" y2="94" stroke="#8C6A3A" stroke-width="1" opacity="0.5"/><path d="M32,94 Q33,66 70,61 Q107,66 108,94 Z" fill="#6B1E4A" stroke="#2A1C10" stroke-width="1"/><rect x="65" y="50" width="10" height="12" fill="#F2CDA9" stroke="#B98A63" stroke-width="0.8"/><ellipse cx="70" cy="66" rx="24" ry="7.5" fill="#FBF8F1" stroke="#CFC6B5" stroke-width="1"/><path d="M55.1,65.0 l1.2,2.6 l-2.4,0 Z" fill="#1F1B16"/><path d="M64.7,68.0 l1.2,2.6 l-2.4,0 Z" fill="#1F1B16"/><path d="M75.3,68.0 l1.2,2.6 l-2.4,0 Z" fill="#1F1B16"/><path d="M84.9,65.0 l1.2,2.6 l-2.4,0 Z" fill="#1F1B16"/><circle cx="70" cy="40" r="14" fill="#F2CDA9" stroke="#B98A63" stroke-width="1"/><path d="M56,39 Q57,25 70,26 Q83,25 84,39 Q79,31 70,31 Q61,31 56,39 Z" fill="#5A3A22"/><path d="M56.5,42 Q58,62 70,64 Q82,62 83.5,42 Q77,52 70,51 Q63,52 56.5,42 Z" fill="#5A3A22"/><path d="M63,47 Q70,44 77,47 Q70,49 63,47 Z" fill="#5A3A22"/><circle cx="65" cy="39" r="1.6" fill="#2A1C10"/><circle cx="75" cy="39" r="1.6" fill="#2A1C10"/><polygon points="56.0,27.0 56.0,13.0 63.0,20.7 70.0,13.0 77.0,20.7 84.0,13.0 84.0,27.0" fill="#D9A62E" stroke="#7A5418" stroke-width="1.2" stroke-linejoin="round"/><rect x="56.0" y="27.0" width="28.0" height="4.5" rx="1" fill="#C08A1E" stroke="#7A5418" stroke-width="1"/><circle cx="56.0" cy="13.0" r="1.9" fill="#1F5FBF" stroke="#7A5418" stroke-width="0.6"/><circle cx="70.0" cy="13.0" r="1.9" fill="#C9302C" stroke="#7A5418" stroke-width="0.6"/><circle cx="84.0" cy="13.0" r="1.9" fill="#1E8E4E" stroke="#7A5418" stroke-width="0.6"/><text x="25" y="38" text-anchor="middle" font-size="36" font-weight="800" fill="#FFFFFF" stroke="#3E2C14" stroke-width="4" paint-order="stroke" stroke-linejoin="round" font-family="'Helvetica Neue', Helvetica, Arial, sans-serif">3</text><rect x="13.0" y="98" width="34" height="34" rx="4" fill="#F4F1EA" stroke="#8D8778" stroke-width="1.6"/><rect x="16.0" y="101" width="11" height="7" rx="2" fill="#FFFFFF" opacity="0.45"/><text x="30.0" y="123.2" text-anchor="middle" font-size="24" font-weight="800" fill="#FFFFFF" stroke="#000000" stroke-width="4" paint-order="stroke" stroke-linejoin="round" font-family="'Helvetica Neue', Helvetica, Arial, sans-serif">3</text><rect x="53.0" y="98" width="34" height="34" rx="4" fill="#C9302C" stroke="#7D1714" stroke-width="1.6"/><rect x="56.0" y="101" width="11" height="7" rx="2" fill="#EE7A76" opacity="0.45"/><text x="70.0" y="123.2" text-anchor="middle" font-size="24" font-weight="800" fill="#FFFFFF" stroke="#7D1714" stroke-width="3" paint-order="stroke" stroke-linejoin="round" font-family="'Helvetica Neue', Helvetica, Arial, sans-serif">3</text><rect x="93.0" y="98" width="34" height="34" rx="4" fill="#2B2B2E" stroke="#000000" stroke-width="1.6"/><rect x="96.0" y="101" width="11" height="7" rx="2" fill="#6C6C72" opacity="0.45"/><text x="110.0" y="123.2" text-anchor="middle" font-size="24" font-weight="800" fill="#FFFFFF" stroke="#000000" stroke-width="3" paint-order="stroke" stroke-linejoin="round" font-family="'Helvetica Neue', Helvetica, Arial, sans-serif">3</text></svg>
